<mxfile host="app.diagrams.net" modified="2022-11-30T15:14:15.926Z" agent="5.0 (Windows NT 10.0; Win64; x64) AppleWebKit/537.36 (KHTML, like Gecko) Chrome/106.0.0.0 Safari/537.36 OPR/92.0.0.0 (Edition Yx GX)" version="20.6.0" etag="KVsmOnaz1ai2e8tVYdB1" type="github">
  <diagram id="aLHdpdPguQH7w07ezfLg" name="Страница 1">
    <mxGraphModel dx="1151" dy="668" grid="1" gridSize="10" guides="1" tooltips="1" connect="1" arrows="1" fold="1" page="1" pageScale="1" pageWidth="1169" pageHeight="1654" math="0" shadow="0">
      <root>
        <mxCell id="0" />
        <mxCell id="1" parent="0" />
        <mxCell id="2mK4DAPYnvcosQYo9lvJ-1" value="&lt;span style=&quot;font-size: 15px; font-style: normal; font-variant-ligatures: normal; font-variant-caps: normal; font-weight: 400; letter-spacing: normal; orphans: 2; text-indent: 0px; text-transform: none; widows: 2; word-spacing: 0px; -webkit-text-stroke-width: 0px; text-decoration-thickness: initial; text-decoration-style: initial; text-decoration-color: initial; float: none; display: inline !important;&quot;&gt;Найти сумму всех элементов массива с нечетными индексами&lt;/span&gt;" style="text;whiteSpace=wrap;html=1;fillColor=none;gradientColor=none;labelBackgroundColor=none;fontColor=#FFFFFF;fontFamily=Courier New;align=center;" vertex="1" parent="1">
          <mxGeometry x="340" y="30" width="470" height="40" as="geometry" />
        </mxCell>
        <mxCell id="2mK4DAPYnvcosQYo9lvJ-4" value="" style="edgeStyle=orthogonalEdgeStyle;rounded=0;orthogonalLoop=1;jettySize=auto;html=1;fontFamily=Courier New;fontColor=#FFFFFF;" edge="1" parent="1" source="2mK4DAPYnvcosQYo9lvJ-2" target="2mK4DAPYnvcosQYo9lvJ-3">
          <mxGeometry relative="1" as="geometry" />
        </mxCell>
        <mxCell id="2mK4DAPYnvcosQYo9lvJ-2" value="start" style="ellipse;whiteSpace=wrap;html=1;labelBackgroundColor=none;fontFamily=Courier New;fontColor=#FFFFFF;fillColor=none;gradientColor=none;" vertex="1" parent="1">
          <mxGeometry x="515" y="150" width="120" height="60" as="geometry" />
        </mxCell>
        <mxCell id="2mK4DAPYnvcosQYo9lvJ-6" value="" style="edgeStyle=orthogonalEdgeStyle;rounded=0;orthogonalLoop=1;jettySize=auto;html=1;fontFamily=Courier New;fontColor=#FFFFFF;" edge="1" parent="1" source="2mK4DAPYnvcosQYo9lvJ-3" target="2mK4DAPYnvcosQYo9lvJ-5">
          <mxGeometry relative="1" as="geometry" />
        </mxCell>
        <mxCell id="2mK4DAPYnvcosQYo9lvJ-3" value="A[N]" style="shape=parallelogram;perimeter=parallelogramPerimeter;whiteSpace=wrap;html=1;fixedSize=1;fontFamily=Courier New;fillColor=none;fontColor=#FFFFFF;labelBackgroundColor=none;gradientColor=none;" vertex="1" parent="1">
          <mxGeometry x="515" y="290" width="120" height="60" as="geometry" />
        </mxCell>
        <mxCell id="2mK4DAPYnvcosQYo9lvJ-8" value="" style="edgeStyle=orthogonalEdgeStyle;rounded=0;orthogonalLoop=1;jettySize=auto;html=1;fontFamily=Courier New;fontColor=#FFFFFF;" edge="1" parent="1" source="2mK4DAPYnvcosQYo9lvJ-5" target="2mK4DAPYnvcosQYo9lvJ-7">
          <mxGeometry relative="1" as="geometry" />
        </mxCell>
        <mxCell id="2mK4DAPYnvcosQYo9lvJ-5" value="index = 0;&lt;br&gt;sum = 0;" style="whiteSpace=wrap;html=1;fontFamily=Courier New;fillColor=none;fontColor=#FFFFFF;labelBackgroundColor=none;gradientColor=none;" vertex="1" parent="1">
          <mxGeometry x="515" y="430" width="120" height="60" as="geometry" />
        </mxCell>
        <mxCell id="2mK4DAPYnvcosQYo9lvJ-10" value="" style="edgeStyle=orthogonalEdgeStyle;rounded=0;orthogonalLoop=1;jettySize=auto;html=1;fontFamily=Courier New;fontColor=#FFFFFF;" edge="1" parent="1" source="2mK4DAPYnvcosQYo9lvJ-7" target="2mK4DAPYnvcosQYo9lvJ-9">
          <mxGeometry relative="1" as="geometry" />
        </mxCell>
        <mxCell id="2mK4DAPYnvcosQYo9lvJ-18" value="yes" style="edgeLabel;html=1;align=center;verticalAlign=middle;resizable=0;points=[];fontFamily=Courier New;fontColor=#FFFFFF;" vertex="1" connectable="0" parent="2mK4DAPYnvcosQYo9lvJ-10">
          <mxGeometry x="-0.3" relative="1" as="geometry">
            <mxPoint as="offset" />
          </mxGeometry>
        </mxCell>
        <mxCell id="2mK4DAPYnvcosQYo9lvJ-14" value="" style="edgeStyle=orthogonalEdgeStyle;rounded=0;orthogonalLoop=1;jettySize=auto;html=1;fontFamily=Courier New;fontColor=#FFFFFF;" edge="1" parent="1" source="2mK4DAPYnvcosQYo9lvJ-7" target="2mK4DAPYnvcosQYo9lvJ-13">
          <mxGeometry relative="1" as="geometry" />
        </mxCell>
        <mxCell id="2mK4DAPYnvcosQYo9lvJ-19" value="no" style="edgeLabel;html=1;align=center;verticalAlign=middle;resizable=0;points=[];fontFamily=Courier New;fontColor=#FFFFFF;" vertex="1" connectable="0" parent="2mK4DAPYnvcosQYo9lvJ-14">
          <mxGeometry x="-0.3603" relative="1" as="geometry">
            <mxPoint x="6" as="offset" />
          </mxGeometry>
        </mxCell>
        <mxCell id="2mK4DAPYnvcosQYo9lvJ-7" value="index &amp;lt; N/2" style="rhombus;whiteSpace=wrap;html=1;fontFamily=Courier New;fillColor=none;fontColor=#FFFFFF;labelBackgroundColor=none;gradientColor=none;" vertex="1" parent="1">
          <mxGeometry x="535" y="560" width="80" height="80" as="geometry" />
        </mxCell>
        <mxCell id="2mK4DAPYnvcosQYo9lvJ-12" value="" style="edgeStyle=orthogonalEdgeStyle;rounded=0;orthogonalLoop=1;jettySize=auto;html=1;fontFamily=Courier New;fontColor=#FFFFFF;" edge="1" parent="1" source="2mK4DAPYnvcosQYo9lvJ-9" target="2mK4DAPYnvcosQYo9lvJ-11">
          <mxGeometry relative="1" as="geometry" />
        </mxCell>
        <mxCell id="2mK4DAPYnvcosQYo9lvJ-9" value="sum = sum + A[index+1]" style="whiteSpace=wrap;html=1;fontFamily=Courier New;fillColor=none;fontColor=#FFFFFF;labelBackgroundColor=none;gradientColor=none;" vertex="1" parent="1">
          <mxGeometry x="515" y="700" width="120" height="60" as="geometry" />
        </mxCell>
        <mxCell id="2mK4DAPYnvcosQYo9lvJ-17" style="edgeStyle=orthogonalEdgeStyle;rounded=0;orthogonalLoop=1;jettySize=auto;html=1;entryX=0;entryY=0.5;entryDx=0;entryDy=0;fontFamily=Courier New;fontColor=#FFFFFF;" edge="1" parent="1" source="2mK4DAPYnvcosQYo9lvJ-11" target="2mK4DAPYnvcosQYo9lvJ-7">
          <mxGeometry relative="1" as="geometry">
            <Array as="points">
              <mxPoint x="450" y="870" />
              <mxPoint x="450" y="600" />
            </Array>
          </mxGeometry>
        </mxCell>
        <mxCell id="2mK4DAPYnvcosQYo9lvJ-11" value="index = index + 1" style="whiteSpace=wrap;html=1;fontFamily=Courier New;fillColor=none;fontColor=#FFFFFF;labelBackgroundColor=none;gradientColor=none;" vertex="1" parent="1">
          <mxGeometry x="515" y="840" width="120" height="60" as="geometry" />
        </mxCell>
        <mxCell id="2mK4DAPYnvcosQYo9lvJ-16" value="" style="edgeStyle=orthogonalEdgeStyle;rounded=0;orthogonalLoop=1;jettySize=auto;html=1;fontFamily=Courier New;fontColor=#FFFFFF;" edge="1" parent="1" source="2mK4DAPYnvcosQYo9lvJ-13" target="2mK4DAPYnvcosQYo9lvJ-15">
          <mxGeometry relative="1" as="geometry" />
        </mxCell>
        <mxCell id="2mK4DAPYnvcosQYo9lvJ-13" value="print(sum)" style="shape=document;whiteSpace=wrap;html=1;boundedLbl=1;fontFamily=Courier New;fillColor=none;fontColor=#FFFFFF;labelBackgroundColor=none;gradientColor=none;" vertex="1" parent="1">
          <mxGeometry x="675" y="560" width="120" height="80" as="geometry" />
        </mxCell>
        <mxCell id="2mK4DAPYnvcosQYo9lvJ-15" value="stop" style="ellipse;whiteSpace=wrap;html=1;fontFamily=Courier New;fillColor=none;fontColor=#FFFFFF;labelBackgroundColor=none;gradientColor=none;" vertex="1" parent="1">
          <mxGeometry x="875" y="570" width="120" height="60" as="geometry" />
        </mxCell>
      </root>
    </mxGraphModel>
  </diagram>
</mxfile>
